<svg viewBox="0 0 511 512" xmlns="http://www.w3.org/2000/svg" fill="#f3274c" >
              <path d="m394.800781 184.148438c-.691406 3.113281-3.0625 5.582031-6.144531 6.402343-5.734375 1.53125-11.308594 3.617188-16.640625 6.226563-4.253906 2.019531-8.335937 4.390625-12.203125 7.085937-1.621094 1.105469-3.242188 2.214844-4.777344 3.410157-2.558594 1.964843-5.121094 4.097656-7.59375 6.230468l-6.742187 6.742188c0 .085937-.085938.167968-.171875.253906-1.449219 1.621094-2.984375 3.242188-4.4375 4.949219 0 .085937-.085938.171875-.253906.257812-4.3125 5.292969-8.25 10.878907-11.777344 16.726563-.765625 1.109375-1.363282 2.21875-2.046875 3.410156-2.132813 3.757812-4.097657 7.597656-6.058594 11.691406-.34375.855469-.683594 1.621094-1.109375 2.476563-1.964844 4.4375-3.753906 9.128906-5.375 13.910156-.769531 2.386719-1.539062 4.691406-2.21875 7.082031-1.367188 4.777344-2.648438 9.726563-3.671875 14.847656-.425781 2.304688-.9375 4.605469-1.277344 6.996094-.34375 2.390625-.769531 4.609375-1.027343 6.914063-.339844 1.960937-.59375 3.921875-.765626 5.886719-.257812 2.558593-.511718 5.203124-.683593 7.851562-.253907 3.070312-.425781 6.144531-.511719 9.300781h187.476562c-.9375-72.960937-14.421874-122.964843-38.824218-146.519531l20.222656-60.585938c1.589844-4.132812 5.75-6.683593 10.15625-6.230468 17.441406-.015625 32.066406-13.179688 33.910156-30.527344 1.839844-17.347656-9.691406-33.289062-26.742187-36.96875-4.667969-1.023438-9.5-1.023438-14.167969 0-3.011719.65625-6.113281-.640625-7.765625-3.242188-7.964844-11.488281-22.128906-16.957031-35.746094-13.804687-13.617187 3.148437-23.9375 14.285156-26.046875 28.105469-2.105468 13.816406 4.421875 27.523437 16.480469 34.59375 3.558594 2.226562 5.089844 6.628906 3.671875 10.582031l-21.078125 62.890625c-4.105469.398438-8.179687 1.050781-12.203125 1.960938 1.109375.941406 2.21875 1.792968 3.328125 2.730468 2.402344 2.0625 3.484375 5.269532 2.816406 8.363282zm43.265625-70.570313c3.929688-11.550781-.679687-24.28125-11.09375-30.632813-6.035156-3.527343-9.308594-10.371093-8.269531-17.28125 1.042969-6.910156 6.191406-12.488281 12.996094-14.074218 6.804687-1.589844 13.890625 1.128906 17.886719 6.863281 5.542968 8.289063 15.609374 12.324219 25.34375 10.15625 2.339843-.429687 4.738281-.429687 7.082031 0 6.707031 1.527344 11.867187 6.890625 13.140625 13.652344.921875 5.027343-.460938 10.207031-3.765625 14.109375-3.308594 3.898437-8.1875 6.113281-13.300781 6.027344-11.65625-.277344-22.179688 6.945312-26.113282 17.921874l-18.515625 55.550782-1.792969-.765625c-1.457031-.695313-2.96875-1.265625-4.523437-1.707031-.597656-.171876-1.195313-.429688-1.875-.597657-.683594-.171875-1.195313-.34375-1.878906-.511719-.359375-.125-.730469-.210937-1.109375-.257812-1.109375-.253906-2.304688-.511719-3.5-.683594zm0 0"></path>
              <path d="m89.648438 454.996094c15.605468 4.746094 30.234374 12.261718 43.179687 22.1875 21.332031 15.871094 60.074219 34.816406 123.648437 34.816406 63.570313 0 102.3125-18.945312 123.648438-34.816406 12.945312-9.925782 27.570312-17.441406 43.175781-22.1875 29.015625-8.53125 79.277344-31.914063 88.832031-92.5 1.171876-7.417969-.957031-14.972656-5.832031-20.683594s-12.003906-9.003906-19.511719-9.011719c.085938 2.816407.085938 5.632813.085938 8.53125 0 4.714844-3.820312 8.535157-8.53125 8.535157h-324.269531c0 7.535156-4.945313 14.179687-12.164063 16.34375-7.222656 2.164062-15.003906-.664063-19.152344-6.957032-.386718-.570312-.847656-1.085937-1.367187-1.535156-3.191406-3.074219-8.242187-3.074219-11.433594 0-.519531.449219-.976562.964844-1.363281 1.535156-3.53125 5.378906-9.792969 8.304688-16.183594 7.566406-6.390625-.742187-11.820312-5.023437-14.027344-11.066406-1.007812-2.796875-3.402343-4.863281-6.3125-5.460937-2.90625-.523438-5.882812.4375-7.9375 2.558593-3.179687 3.53125-7.707031 5.546876-12.457031 5.546876-8.210937-.078126-15.199219-5.988282-16.640625-14.070313-1.441406-8.078125 3.078125-16.042969 10.753906-18.953125 2.792969-1.007812 4.863282-3.402344 5.460938-6.3125.5625-2.910156-.402344-5.90625-2.5625-7.9375-3.53125-3.179688-5.546875-7.707031-5.546875-12.457031.03125-9.414063 7.652344-17.039063 17.066406-17.066407 1.988281.007813 3.953125.386719 5.804688 1.109376 2.703125 1 5.726562.550781 8.019531-1.195313 2.304688-1.792969 3.578125-4.597656 3.414062-7.511719-.097656-.300781-.15625-.617187-.171874-.9375.03125-9.414062 7.65625-17.039062 17.070312-17.066406 5.929688.011719 11.414062 3.160156 14.417969 8.277344-.765625 2.644531-1.363281 5.289062-1.960938 7.9375-.597656 2.644531-1.109375 5.203125-1.535156 7.765625-.066406.066406-.097656.160156-.085937.253906-.425782 2.558594-.769532 5.121094-1.109376 7.679687-.257812 1.878907-.425781 3.753907-.597656 5.632813-.171875 1.707031-.257812 3.328125-.339844 4.949219-.171874 2.902344-.257812 5.800781-.257812 8.703125 0 4.714843 3.820312 8.535156 8.535156 8.535156 7.25.039063 13.683594 4.660156 16.039063 11.519531.945312 2.921875 3.453125 5.066406 6.488281 5.546875.699219.144531 1.417969.203125 2.132812.167969.144532 0 .289063-.027344.425782-.082031.230468.015625.464844-.011719.683594-.085938h145.066406c.085937-2.304687.171875-4.609375.339844-6.828125-.011719-.429687.015624-.855468.085937-1.28125.085937-2.273437.257813-4.578125.511719-6.910156.171875-2.472656.425781-4.863281.769531-7.253906.339844-2.390625.597656-4.691406.9375-7.082032 9.300781-60.5 40.535156-100.863281 75.605469-119.894531 2.730468-1.449219 5.460937-2.816406 8.191406-4.007812 6.414062-2.851563 13.105469-5.023438 19.96875-6.488281-30.3125-23.988282-67.925781-36.875-106.582031-36.519532-72.53125-.035156-138.148438 43.019532-166.996094 109.566406-5.902344-4.667968-13.210937-7.195312-20.734375-7.167968-15.558594.011718-29.136719 10.539062-33.027344 25.601562-12.214844-.402344-23.714844 5.761719-30.144531 16.15625-6.433594 10.394532-6.8125 23.433594-1 34.1875-5.96875 4.914063-10.136719 11.667969-11.863281 19.199219-4.570313 1.484375-8.644532 4.203125-11.773438 7.851563-4.796875 5.703124-6.882812 13.207031-5.71875 20.566406 9.558594 60.585937 59.820313 83.96875 88.832032 92.5zm168.277343-283.390625c2.578125-3.921875 7.839844-5.027344 11.777344-2.476563 12.84375 8.625 24.742187 18.578125 35.496094 29.699219 1.605469 1.59375 2.503906 3.769531 2.488281 6.03125-.019531 2.265625-.945312 4.425781-2.574219 6-1.585937 1.574219-3.734375 2.464844-5.972656 2.472656-2.285156.015625-4.476563-.910156-6.058594-2.558593-9.96875-10.214844-20.945312-19.390626-32.765625-27.390626-1.894531-1.234374-3.210937-3.175781-3.660156-5.390624-.449219-2.210938.007812-4.515626 1.269531-6.386719zm-51.710937 29.355469c1.011718-2.023438 2.785156-3.554688 4.933594-4.261719 2.148437-.703125 4.488281-.523438 6.5.507812 21.355468 10.882813 39.96875 26.460938 54.441406 45.566407 1.257812 1.875 1.714844 4.175781 1.265625 6.386718-.449219 2.210938-1.765625 4.152344-3.652344 5.390625-1.375.960938-3.015625 1.46875-4.695313 1.449219-2.855468-.015625-5.511718-1.457031-7.082031-3.839844-12.914062-16.574218-29.277343-30.144531-47.957031-39.765625-2.023438-1.011719-3.554688-2.789062-4.261719-4.933593-.703125-2.148438-.523437-4.488282.507813-6.5zm-51.796875 44.371093c1.136719-4.519531 5.714843-7.265625 10.238281-6.144531 1.535156.34375 37.804688 9.984375 73.300781 63.320312 1.257813 1.875 1.714844 4.171876 1.265625 6.386719-.449218 2.210938-1.765625 4.152344-3.652344 5.386719-1.375.964844-3.015624 1.472656-4.695312 1.453125-2.855469-.015625-5.511719-1.457031-7.082031-3.839844-31.574219-47.277343-62.976563-56.066406-63.316407-56.152343-4.542968-1.207032-7.253906-5.863282-6.058593-10.410157zm0 0"></path>
              <path d="m247.941406 59.734375c0 4.710937 3.820313 8.53125 8.535156 8.53125 4.710938 0 8.53125-3.820313 8.53125-8.53125 0-.648437 0-.734375 1.765626-2.5 4.292968-3.625 6.765624-8.957031 6.765624-14.570313 0-5.617187-2.472656-10.949218-6.765624-14.574218-1.765626-1.773438-1.765626-1.859375-1.765626-2.488282 0-.632812 0-.726562 1.765626-2.484374 4.265624-3.652344 6.734374-8.972657 6.769531-14.582032 0-4.714844-3.820313-8.535156-8.535157-8.535156-4.710937 0-8.53125 3.820312-8.53125 8.535156 0 .636719 0 .722656-1.769531 2.488282-4.261719 3.648437-6.730469 8.964843-6.765625 14.578124.039063 5.605469 2.507813 10.925782 6.765625 14.574219 1.769531 1.75 1.769531 1.832031 1.769531 2.492188 0 .65625 0 .734375-1.769531 2.5-4.253906 3.644531-6.722656 8.960937-6.765625 14.566406zm0 0"></path>
              <path d="m196.742188 102.398438c0 4.714843 3.820312 8.535156 8.53125 8.535156 4.714843 0 8.535156-3.820313 8.535156-8.535156 0-.648438 0-.730469 1.765625-2.5 4.292969-3.625 6.765625-8.957032 6.765625-14.574219 0-5.617188-2.472656-10.949219-6.765625-14.574219-1.765625-1.757812-1.765625-1.84375-1.765625-2.484375s0-.722656 1.765625-2.480469c4.261719-3.652344 6.730469-8.972656 6.769531-14.585937 0-4.710938-3.824219-8.53125-8.535156-8.53125-4.714844 0-8.535156 3.820312-8.535156 8.53125 0 .640625 0 .726562-1.765626 2.484375-4.289062 3.625-6.765624 8.953125-6.765624 14.570312 0 5.617188 2.476562 10.945313 6.765624 14.570313 1.765626 1.773437 1.765626 1.859375 1.765626 2.507812 0 .648438 0 .734375-1.765626 2.5-4.257812 3.648438-6.722656 8.960938-6.765624 14.566407zm0 0"></path>
              <path d="m299.140625 102.398438c0 4.714843 3.820313 8.535156 8.535156 8.535156 4.710938 0 8.53125-3.820313 8.53125-8.535156 0-.648438 0-.730469 1.769531-2.5 4.289063-3.625 6.765626-8.957032 6.765626-14.574219 0-5.617188-2.476563-10.949219-6.765626-14.574219-1.769531-1.757812-1.769531-1.84375-1.769531-2.484375s0-.722656 1.769531-2.480469c4.261719-3.652344 6.730469-8.972656 6.765626-14.585937 0-4.710938-3.820313-8.53125-8.535157-8.53125-4.710937 0-8.53125 3.820312-8.53125 8.53125 0 .640625 0 .726562-1.765625 2.484375-4.292968 3.625-6.765625 8.953125-6.765625 14.570312 0 5.617188 2.472657 10.945313 6.765625 14.570313 1.765625 1.773437 1.765625 1.859375 1.765625 2.507812 0 .648438 0 .734375-1.765625 2.5-4.257812 3.648438-6.726562 8.960938-6.769531 14.566407zm0 0"></path></svg>